<?xml version="1.0" ?><!DOCTYPE svg  PUBLIC '-//W3C//DTD SVG 1.1//EN'  'http://www.w3.org/Graphics/SVG/1.1/DTD/svg11.dtd'><svg height="100%" style="fill-rule:evenodd;clip-rule:evenodd;stroke-linejoin:round;stroke-miterlimit:1.41421;" version="1.1" viewBox="0 0 128 128" width="100%" xml:space="preserve" xmlns="http://www.w3.org/2000/svg" xmlns:serif="http://www.serif.com/" xmlns:xlink="http://www.w3.org/1999/xlink"><rect height="128" id="Lock" style="fill:none;" width="128" x="0.408" y="0.917"/><path d="M94.424,69c0.143,-9.786 1.175,-19.719 -1.551,-28.984c-2.751,-9.35 -9.908,-17.596 -19.925,-20.027c-11.516,-2.794 -24.765,0.117 -31.71,9.152c-4.339,5.646 -6.686,12.89 -6.83,19.9c0,0 -0.64,2.158 -2.265,1.941c-2.044,-0.273 -1.73,-3.709 -1.3,-6.495c1.877,-12.163 9.28,-23.807 21.358,-27.733c3.683,-1.198 7.562,-1.701 11.452,-1.753c0.384,-0.002 0.384,-0.002 0.768,-0.001c9.673,0.101 19.366,3.395 25.722,11.122c5.229,6.358 8.017,14.661 8.263,22.736l0.002,20.142l6,0c0.081,0.005 0.161,0.01 0.241,0.015c1.39,0.254 1.694,0.899 1.759,1.985c0,10.064 0.1,20.128 -0.002,30.191c-0.17,11.311 -9.92,21.614 -21.861,21.726c-13.47,0.04 -26.941,0.124 -40.41,-0.002c-11.236,-0.175 -21.617,-9.812 -21.726,-21.862c0,0 -0.001,-30.053 -0.001,-30.053c0,0 0.393,-1.903 2,-2l70.016,0Zm7.984,4l-76,0c0,9.381 -0.083,18.761 0.002,28.141c0.139,9.203 8.152,17.685 17.886,17.776c13.445,0.04 26.891,0.124 40.336,-0.001c9.193,-0.144 17.678,-8.114 17.776,-17.888l0,-28.028Zm-37.845,10.959c7.907,0.152 14.381,9.484 10.66,17.202c-3.249,6.738 -13.481,8.831 -19.093,3.483c-6.595,-6.287 -2.846,-20.474 8.124,-20.685c0.154,-0.001 0.154,-0.001 0.309,0Zm-0.259,4c-6.127,0.118 -10.545,8.899 -5.414,13.789c5.049,4.811 16.624,-0.657 12.812,-9.079c-1.272,-2.809 -4.237,-4.73 -7.398,-4.71Z" style="fill-rule:nonzero;"/></svg>